<svg width="18" height="24" viewBox="0 0 18 24" fill="none" xmlns="http://www.w3.org/2000/svg">
<path d="M17.7778 16V3C17.7778 2.375 17.3968 2 16.7619 2H3.80952C1.65079 2 0 3.625 0 5.75V18.25C0 20.375 1.65079 22 3.80952 22H16.7619C17.2698 22 17.7778 21.625 17.7778 21V20.375C17.7778 20.125 17.6508 19.875 17.3968 19.625C17.2698 19 17.2698 17.25 17.3968 16.75C17.6508 16.625 17.7778 16.375 17.7778 16V16ZM10.7937 8.25L11.8516 10.3332L13.9683 11.375L11.8516 12.4168L10.7937 14.5L9.73571 12.4168L7.61905 11.375L9.73571 10.3332L10.7937 8.25ZM6.34921 5.75L6.98413 4.5L7.61905 5.75L8.88889 6.375L7.61905 7L6.98413 8.25L6.34921 7L5.07937 6.375L6.34921 5.75ZM15.1111 19.5H3.80952C3.04762 19.5 2.53968 19 2.53968 18.25C2.53968 17.5 3.1746 17 3.80952 17H15.1111V19.5Z" fill="black"/>
</svg>
