<svg width="22" height="24" viewBox="0 0 22 24" fill="none" xmlns="http://www.w3.org/2000/svg">
<path fill-rule="evenodd" clip-rule="evenodd" d="M9.72507 1.14492C8.69549 1.43445 7.85439 1.90575 7.18233 2.56946L6.58032 3.16413L5.81651 2.77945C4.3788 2.05537 2.58948 2.33072 1.34355 3.4677C0.606814 4.13994 0.145452 5.0076 0.0142734 5.96726C-0.121638 6.96131 0.72038 9.80947 2.2271 13.4522L2.75642 14.7318H3.98881C5.1781 14.7318 5.22135 14.7214 5.22503 14.4365C5.227 14.274 5.12539 12.7647 4.99921 11.0824C4.74461 7.69012 4.72831 7.78186 5.58597 7.77779C5.91339 7.77635 6.04246 7.84643 6.12527 8.07112C6.18508 8.23347 6.34176 9.79857 6.47333 11.5491L6.71242 14.7318H8.46428H10.216V11.4113C10.216 7.84866 10.2294 7.77582 10.8887 7.77582C11.6955 7.77582 11.6619 7.62121 11.6619 11.3335V14.7318H13.4793H15.2969L15.536 11.5491C15.6676 9.79857 15.8271 8.22599 15.8905 8.05432C15.9929 7.77713 16.0656 7.7501 16.5393 7.81349C16.8327 7.85286 17.1099 7.92203 17.1552 7.96731C17.2006 8.01272 17.1348 9.42032 17.0092 11.0955C16.8834 12.7706 16.7823 14.274 16.7843 14.4365C16.788 14.7216 16.8311 14.7318 18.0246 14.7318H19.2609L19.6857 13.7147C20.4757 11.823 21.5263 8.81988 21.7984 7.67607C22.0353 6.68006 22.0496 6.44027 21.9132 5.74808C21.8275 5.31314 21.671 4.79065 21.5655 4.58696C21.235 3.94871 20.4459 3.17581 19.7538 2.81239C19.1761 2.50895 18.9323 2.46275 17.9054 2.46275C16.8764 2.46275 16.6351 2.50869 16.052 2.81475L15.3817 3.16675L14.8033 2.57615C13.9475 1.70219 12.6246 1.09584 11.399 1.01578C10.7464 0.973252 10.1807 1.01683 9.72507 1.14492ZM2.72434 19.0301C2.72474 21.6516 2.74629 21.9197 2.98723 22.3145C3.13155 22.5509 3.4014 22.8019 3.58687 22.8723C3.7906 22.9496 6.71387 23.0001 10.9803 23C17.4359 22.9999 18.0758 22.9803 18.495 22.7703C19.2386 22.398 19.2814 22.1945 19.2835 19.0301L19.2855 16.1755H11.0047H2.72382L2.72434 19.0301Z" fill="black"/>
</svg>
