<svg width="24" height="24" viewBox="0 0 24 24" fill="none" xmlns="http://www.w3.org/2000/svg">
<path d="M23.4 15.75H22.8V11.5273C22.8 11.0312 22.6088 10.5547 22.2713 10.2031L18.525 6.30078C18.1875 5.94922 17.73 5.75 17.2538 5.75H15.6V3.875C15.6 2.83984 14.7938 2 13.8 2H1.8C0.80625 2 0 2.83984 0 3.875V16.375C0 17.4102 0.80625 18.25 1.8 18.25H2.4C2.4 20.3203 4.0125 22 6 22C7.9875 22 9.6 20.3203 9.6 18.25H14.4C14.4 20.3203 16.0125 22 18 22C19.9875 22 21.6 20.3203 21.6 18.25H23.4C23.73 18.25 24 17.9688 24 17.625V16.375C24 16.0312 23.73 15.75 23.4 15.75ZM6 20.125C5.00625 20.125 4.2 19.2852 4.2 18.25C4.2 17.2148 5.00625 16.375 6 16.375C6.99375 16.375 7.8 17.2148 7.8 18.25C7.8 19.2852 6.99375 20.125 6 20.125ZM18 20.125C17.0063 20.125 16.2 19.2852 16.2 18.25C16.2 17.2148 17.0063 16.375 18 16.375C18.9938 16.375 19.8 17.2148 19.8 18.25C19.8 19.2852 18.9938 20.125 18 20.125ZM21 12H15.6V7.625H17.2538L21 11.5273V12Z" fill="black"/>
</svg>
