<svg width="15" height="24" viewBox="0 0 15 24" fill="none" xmlns="http://www.w3.org/2000/svg">
<path fill-rule="evenodd" clip-rule="evenodd" d="M3.21429 2H10.1786L15 6.73684V18.8421C15 19.1213 14.8871 19.389 14.6862 19.5864C14.4853 19.7838 14.2127 19.8947 13.9286 19.8947H3.21429C2.93013 19.8947 2.6576 19.7838 2.45667 19.5864C2.25574 19.389 2.14286 19.1213 2.14286 18.8421V3.05263C2.14286 2.77346 2.25574 2.50572 2.45667 2.30831C2.6576 2.1109 2.93013 2 3.21429 2ZM13.3929 6.73684L10.1786 3.57895V6.21053C10.1786 6.35011 10.235 6.48398 10.3355 6.58269C10.4359 6.68139 10.5722 6.73684 10.7143 6.73684H13.3929ZM12.1645 10.5753C12.2649 10.674 12.3213 10.8078 12.3213 10.9474C12.3213 11.0869 12.2649 11.2208 12.1645 11.3195L7.5 15.9021L4.97839 13.4247C4.88081 13.3255 4.82681 13.1925 4.82803 13.0545C4.82925 12.9165 4.88559 12.7845 4.98492 12.6869C5.08424 12.5894 5.21861 12.534 5.35907 12.5328C5.49953 12.5316 5.63486 12.5847 5.73589 12.6805L7.5 14.4137L11.407 10.5753C11.5074 10.4766 11.6437 10.4212 11.7857 10.4212C11.9278 10.4212 12.064 10.4766 12.1645 10.5753Z" fill="black"/>
<path d="M1.07143 5.15789H0V19.3684C0 20.0664 0.282206 20.7357 0.784535 21.2292C1.28686 21.7227 1.96817 22 2.67857 22H12.8571V20.9474H2.67857C2.25233 20.9474 1.84355 20.781 1.54215 20.4849C1.24075 20.1888 1.07143 19.7872 1.07143 19.3684V5.15789Z" fill="black"/>
</svg>
