<svg width="14" height="24" fill="none" xmlns="http://www.w3.org/2000/svg"><g clip-path="url(#a)" fill="#000"><path fill-rule="evenodd" clip-rule="evenodd" d="M10.179 2H3.214a1.071 1.071 0 0 0-1.071 1.071v16.072a1.072 1.072 0 0 0 1.071 1.071H13.93A1.072 1.072 0 0 0 15 19.143V6.82L10.179 2Zm0 1.607 3.214 3.214h-2.679a.536.536 0 0 1-.535-.535V3.607ZM4 8h9v1H4V8Zm0 3h9v1H4v-1Zm0 3h9v1H4v-1Zm0 3h9v1H4v-1Z"/><path d="M0 5.214h1.071V19.68a1.607 1.607 0 0 0 1.608 1.607h10.178v1.071H2.68A2.679 2.679 0 0 1 0 19.68V5.214Z"/></g><defs><clipPath id="a"><path fill="#fff" d="M0 0h14v24H0z"/></clipPath></defs></svg>