<svg width="23" height="24" viewBox="0 0 23 24" fill="none" xmlns="http://www.w3.org/2000/svg">
<path d="M20.7 3C21.31 3 21.895 3.23705 22.3263 3.65901C22.7577 4.08097 23 4.65326 23 5.25V18.75C23 19.3467 22.7577 19.919 22.3263 20.341C21.895 20.7629 21.31 21 20.7 21H2.3C1.69 21 1.10499 20.7629 0.673654 20.341C0.242321 19.919 0 19.3467 0 18.75V5.25C0 4.0125 1.035 3 2.3 3H20.7ZM15.6745 13.2375L23 18.75V16.5L17.112 12.1125L23 7.5V5.25L11.5 14.25L0 5.25V7.5L5.888 12.1125L0 16.5V18.75L7.3255 13.2375L11.5 16.5L15.6745 13.2375Z" fill="black"/>
</svg>
