<svg width="22" height="24" viewBox="0 0 22 24" fill="none" xmlns="http://www.w3.org/2000/svg">
<path fill-rule="evenodd" clip-rule="evenodd" d="M10.3711 2.05118C9.98658 2.12001 9.48312 2.31488 9.10568 2.54098C8.62107 2.83126 7.95832 3.53105 7.6966 4.02887C6.83137 5.67436 7.07784 7.65771 8.31161 8.97791C9.04424 9.76191 9.95756 10.1652 11 10.1652C12.0424 10.1652 12.9558 9.76191 13.6884 8.97791C14.9222 7.65771 15.1686 5.67436 14.3034 4.02887C14.0417 3.53105 13.3789 2.83126 12.8943 2.54098C12.1279 2.08191 11.2028 1.90233 10.3711 2.05118ZM3.56116 5.91778C2.71031 6.15628 1.97888 6.84151 1.64427 7.71359C1.48481 8.12904 1.43624 8.4055 1.43676 8.89429C1.43732 9.38806 1.52067 9.7754 1.7231 10.2243C2.07678 11.0089 2.78849 11.6241 3.59491 11.8425C3.96004 11.9414 4.60751 11.9391 4.9726 11.8376C5.60953 11.6605 6.28236 11.1535 6.6471 10.5757C7.22849 9.65475 7.2854 8.43222 6.79387 7.42336C6.57468 6.9735 6.05172 6.4139 5.63131 6.17936C5.00433 5.82961 4.22632 5.7313 3.56116 5.91778ZM16.9936 5.91778C16.2642 6.12224 15.5448 6.72823 15.2061 7.42336C14.8128 8.23067 14.7646 9.17388 15.0742 10.0068C15.3985 10.8794 16.1649 11.5978 17.0274 11.8376C17.3925 11.9391 18.04 11.9414 18.4051 11.8425C19.4217 11.5672 20.2311 10.7009 20.4925 9.60836C20.5733 9.27086 20.5857 8.58291 20.5172 8.24339C20.2914 7.12543 19.4576 6.19903 18.4219 5.91562C17.9919 5.79796 17.4179 5.79879 16.9936 5.91778ZM8.3953 11.0985C7.74172 11.2575 7.3102 11.5153 6.81996 12.0399C6.41195 12.4765 6.19173 12.8517 6.01091 13.4184L5.89824 13.7716L5.88683 17.6414C5.87564 21.4453 5.87688 21.5138 5.96178 21.6613C6.00927 21.744 6.11126 21.8527 6.18846 21.903C6.32618 21.9929 6.41461 21.9946 11 21.9946C15.5854 21.9946 15.6738 21.9929 15.8115 21.903C15.8887 21.8527 15.9907 21.744 16.0382 21.6613C16.1231 21.5138 16.1244 21.4453 16.1132 17.6414L16.1018 13.7716L15.9891 13.4184C15.8083 12.8517 15.5881 12.4765 15.18 12.0399C14.7718 11.603 14.4208 11.3673 13.8917 11.1744L13.5616 11.0541L11.1076 11.0449C9.16591 11.0377 8.59968 11.0489 8.3953 11.0985ZM2.74057 12.8307C1.50896 13.0017 0.488779 13.944 0.101088 15.2689C0.000430528 15.6129 0 15.6247 0 18.01V20.4056L0.0997965 20.67C0.301886 21.2055 0.717131 21.6496 1.21667 21.8647C1.45717 21.9683 1.50719 21.9715 3.08672 21.9856L4.70964 22L4.65952 21.8477C4.59214 21.643 4.56128 14.6072 4.62499 13.979C4.64941 13.7382 4.7012 13.4169 4.74007 13.2649C4.77895 13.1129 4.82037 12.9419 4.83212 12.8848L4.85348 12.7812L3.93361 12.787C3.42765 12.7902 2.89078 12.8099 2.74057 12.8307ZM17.1679 12.8848C17.1796 12.9419 17.221 13.1129 17.2599 13.2649C17.2988 13.4169 17.3506 13.7382 17.375 13.979C17.4387 14.6072 17.4079 21.643 17.3405 21.8477L17.2904 22L18.9133 21.9856C20.4928 21.9715 20.5428 21.9683 20.7833 21.8647C21.2829 21.6496 21.6981 21.2055 21.9002 20.67L22 20.4056V18.01C22 15.6194 21.9998 15.6137 21.8982 15.2689C21.5718 14.1612 20.8443 13.3435 19.8694 12.9887C19.4329 12.8298 18.9954 12.7812 18.003 12.7812H17.1465L17.1679 12.8848Z" fill="black"/>
</svg>
