<svg width="26" height="24" viewBox="0 0 26 24" fill="none" xmlns="http://www.w3.org/2000/svg">
<path d="M8.8672 11.6885V6.75376C8.86645 6.54197 8.92061 6.33351 9.02455 6.14821C9.12848 5.96291 9.27872 5.80693 9.46098 5.6951L10.7871 4.87864C11.1901 4.63202 11.6548 4.50107 12.1291 4.50049H16.1751L20.2679 2.16753C20.412 2.08542 20.5711 2.03212 20.736 2.01069C20.901 1.98926 21.0686 2.00011 21.2294 2.04263C21.3901 2.08515 21.5407 2.1585 21.6727 2.25848C21.8047 2.35847 21.9154 2.48314 21.9986 2.62537L25.1655 8.03978C25.3333 8.3268 25.3788 8.66785 25.292 8.98796C25.2051 9.30808 24.993 9.58107 24.7023 9.74692L21.5354 11.5517V10.4384C21.5354 9.85817 21.3019 9.30174 20.8862 8.89148C20.4704 8.48121 19.9066 8.25073 19.3186 8.25073H12.0341V11.6885C12.0341 12.1029 11.8672 12.5003 11.5703 12.7934C11.2733 13.0864 10.8706 13.2511 10.4506 13.2511C10.0307 13.2511 9.62792 13.0864 9.33097 12.7934C9.03402 12.5003 8.8672 12.1029 8.8672 11.6885Z" fill="black"/>
<path d="M0.170981 15.9613C0.0874105 15.8193 0.0330721 15.6624 0.0110841 15.4997C-0.0109039 15.337 -0.000108551 15.1715 0.0428506 15.0129C0.0858097 14.8543 0.160087 14.7056 0.261419 14.5754C0.362752 14.4452 0.489145 14.336 0.633344 14.2541L3.80021 12.4493V10.6015C3.80033 10.1701 3.91382 9.74611 4.12959 9.37089C4.34537 8.99568 4.65607 8.68211 5.03133 8.46079L7.60006 6.93726V11.6883C7.60006 12.4343 7.90035 13.1497 8.43486 13.6772C8.96937 14.2047 9.69433 14.501 10.4502 14.501C11.2062 14.501 11.9311 14.2047 12.4656 13.6772C13.0001 13.1497 13.3004 12.4343 13.3004 11.6883V9.5007H19.3179C19.4427 9.50039 19.5664 9.52443 19.6818 9.57144C19.7972 9.61844 19.9021 9.68749 19.9904 9.77461C20.0787 9.86174 20.1486 9.96521 20.1963 10.0791C20.2439 10.193 20.2683 10.315 20.2679 10.4383V12.3134C20.2683 12.4366 20.2439 12.5586 20.1963 12.6725C20.1486 12.7864 20.0787 12.8899 19.9904 12.977C19.9021 13.0641 19.7972 13.1332 19.6818 13.1802C19.5664 13.2272 19.4427 13.2512 19.3179 13.2509H19.0012V15.7511C19.0012 16.0826 18.8677 16.4006 18.6302 16.635C18.3926 16.8695 18.0704 17.0012 17.7344 17.0012H17.1011C17.1004 17.6641 16.8333 18.2996 16.3583 18.7684C15.8833 19.2371 15.2393 19.5007 14.5676 19.5013H9.16054L5.06696 21.8327C4.77628 21.9982 4.43095 22.0431 4.10677 21.9575C3.78258 21.872 3.50604 21.663 3.33785 21.3764L0.170981 15.9613Z" fill="black"/>
</svg>
