<svg width="25" height="24" viewBox="0 0 25 24" fill="none" xmlns="http://www.w3.org/2000/svg">
<path d="M24.5342 9.42188C24.0221 8.86458 23.2235 8.90104 22.6854 9.42188L18.6752 13.2708C18.1848 13.7448 17.5728 14 16.9392 14H11.8049C11.423 14 11.1105 13.625 11.1105 13.1667C11.1105 12.7083 11.423 12.3333 11.8049 12.3333H15.2032C15.8932 12.3333 16.5355 11.7656 16.6484 10.9479C16.7916 9.90625 16.1232 9 15.2769 9H8.33287C7.16106 9 6.02831 9.48437 5.1169 10.3698L3.09879 12.3333H0.694406C0.312483 12.3333 0 12.7083 0 13.1667V18.1667C0 18.625 0.312483 19 0.694406 19H16.1797C16.809 19 17.4209 18.7448 17.9157 18.2708L24.4778 11.9687C25.1375 11.3385 25.1896 10.1302 24.5342 9.42188Z" fill="black"/>
</svg>
