<svg width="16" height="24" viewBox="0 0 16 24" fill="none" xmlns="http://www.w3.org/2000/svg">
<path d="M14.8571 6.37415C14.2285 6.37415 13.7142 6.93654 13.7142 7.6239V10.4359C13.7142 10.6077 13.5856 10.7483 13.4284 10.7483H12.857C12.6998 10.7483 12.5712 10.6077 12.5712 10.4359V4.49951C12.5712 3.81215 12.0569 3.24976 11.4283 3.24976C10.7997 3.24976 10.2854 3.81215 10.2854 4.49951V10.4359C10.2854 10.6077 10.1568 10.7483 9.99965 10.7483H9.42819C9.27103 10.7483 9.14246 10.6077 9.14246 10.4359V3.24976C9.14246 2.56239 8.62814 2 7.99953 2C7.37092 2 6.85661 2.56239 6.85661 3.24976V10.4359C6.85661 10.6077 6.72803 10.7483 6.57088 10.7483H5.99941C5.84226 10.7483 5.71368 10.6077 5.71368 10.4359V4.49951C5.71368 3.81215 5.19937 3.24976 4.57076 3.24976C3.94215 3.24976 3.42783 3.81215 3.42783 4.49951V13.9117L2.58493 12.6425C2.12062 11.9434 1.22771 11.7911 0.588383 12.2988C-0.0509405 12.8065 -0.190234 13.7829 0.274079 14.4819L4.76006 21.2267C5.0815 21.711 5.59939 22 6.14585 22H13.2034C13.9999 22 14.6892 21.4025 14.8714 20.555L15.8178 16.1535C15.9321 15.6184 15.9929 15.0482 16 14.5015V7.6239C16 6.93654 15.4857 6.37415 14.8571 6.37415V6.37415ZM12.6105 16.5753L10.0175 19.3638C9.84964 19.5434 9.57819 19.5434 9.41033 19.3638L6.81732 16.5753C6.0637 15.7668 6.11013 14.4234 6.94947 13.6774C7.68166 13.0252 8.77458 13.1424 9.44962 13.8649L9.71392 14.15L9.97822 13.8649C10.6497 13.1424 11.7426 13.0252 12.4784 13.6774C13.3177 14.4234 13.3606 15.7629 12.6105 16.5753V16.5753Z" fill="black"/>
</svg>
