<svg width="49" height="24" viewBox="0 0 49 24" fill="none" xmlns="http://www.w3.org/2000/svg">
<path fill-rule="evenodd" clip-rule="evenodd" d="M16.3686 19.2898C17.1298 19.6523 17.815 19.9787 18.2473 20.1319C19.3485 20.5222 20.44 18.9209 20.7098 17.9116H30.4953C31.3775 18.1771 32.6236 18.7705 33.7138 19.2898L33.7139 19.2898C34.4751 19.6523 35.1603 19.9787 35.5926 20.1319C36.6938 20.5222 37.7853 18.9209 38.055 17.9116H46.9968C46.9968 17.9116 47.3359 22 41.3816 22H7.63874C1.67883 22 2.00714 17.9116 2.00714 17.9116H13.15C14.0322 18.1771 15.2783 18.7705 16.3686 19.2898Z" fill="black"/>
<path d="M7.61839 3.10618L41.3613 3.10619C47.3212 3.10619 46.9929 7.22766 46.9929 7.22766L2.00322 7.22766C2.00322 7.22766 1.66407 3.10618 7.61839 3.10618Z" fill="black"/>
<ellipse cx="10.0997" cy="3.10642" rx="3.59971" ry="1.10642" fill="black"/>
<ellipse cx="19.713" cy="3.10642" rx="3.59971" ry="1.10642" fill="black"/>
<ellipse cx="29.2989" cy="3.10642" rx="3.59971" ry="1.10642" fill="black"/>
<ellipse cx="38.5997" cy="3.10642" rx="3.59971" ry="1.10642" fill="black"/>
<rect x="4.08594" y="15.0607" width="40.4968" height="2.06074" rx="1" fill="black"/>
<rect x="4.25" y="8.01733" width="11.2491" height="2.06074" rx="1" fill="black"/>
<rect x="17.7539" y="8.01733" width="11.2491" height="2.06074" rx="1" fill="black"/>
<rect x="31.2461" y="8.01733" width="13.4989" height="2.06074" rx="1" fill="black"/>
<path d="M4.26172 11.4415C8.76136 11.4415 6.51154 13.5023 11.0112 13.5023C15.5108 13.5023 13.261 11.4415 17.7606 11.4415C22.2603 11.4415 20.0105 13.5023 24.5101 13.5023C29.0098 13.5023 26.7599 11.4415 31.2596 11.4415C35.7592 11.4415 33.5094 13.5023 38.009 13.5023C42.5087 13.5023 40.2589 11.4415 44.7585 11.4415" stroke="black"/>
</svg>
