<svg width="8" height="24" viewBox="0 0 8 24" fill="none" xmlns="http://www.w3.org/2000/svg">
<path d="M0.833333 18.5714H1.66667V12.9286H0.833333C0.373083 12.9286 0 12.5788 0 12.1473V10.2812C0 9.84977 0.373083 9.5 0.833333 9.5H5.5C5.96025 9.5 6.33333 9.84977 6.33333 10.2812V18.5714H7.16667C7.62692 18.5714 8 18.9212 8 19.3527V21.2188C8 21.6502 7.62692 22 7.16667 22H0.833333C0.373083 22 0 21.6502 0 21.2188V19.3527C0 18.9212 0.373083 18.5714 0.833333 18.5714ZM4 2C2.34313 2 1 3.25918 1 4.8125C1 6.36582 2.34313 7.625 4 7.625C5.65688 7.625 7 6.36582 7 4.8125C7 3.25918 5.65683 2 4 2Z" fill="black"/>
</svg>
