<svg width="20" height="24" viewBox="0 0 20 24" fill="none" xmlns="http://www.w3.org/2000/svg">
<path d="M10 2C4.47754 2 0 6.47915 0 12C0 17.5241 4.47754 22 10 22C15.5225 22 20 17.5241 20 12C20 6.47915 15.5225 2 10 2ZM10 6.43548C10.9353 6.43548 11.6935 7.19371 11.6935 8.12903C11.6935 9.06435 10.9353 9.82258 10 9.82258C9.06468 9.82258 8.30645 9.06435 8.30645 8.12903C8.30645 7.19371 9.06468 6.43548 10 6.43548ZM12.2581 16.6774C12.2581 16.9446 12.0414 17.1613 11.7742 17.1613H8.22581C7.95859 17.1613 7.74194 16.9446 7.74194 16.6774V15.7097C7.74194 15.4425 7.95859 15.2258 8.22581 15.2258H8.70968V12.6452H8.22581C7.95859 12.6452 7.74194 12.4285 7.74194 12.1613V11.1935C7.74194 10.9263 7.95859 10.7097 8.22581 10.7097H10.8065C11.0737 10.7097 11.2903 10.9263 11.2903 11.1935V15.2258H11.7742C12.0414 15.2258 12.2581 15.4425 12.2581 15.7097V16.6774Z" fill="black"/>
</svg>
