<svg width="20" height="24" viewBox="0 0 20 24" fill="none" xmlns="http://www.w3.org/2000/svg">
<path fill-rule="evenodd" clip-rule="evenodd" d="M11.6892 2.13418C11.2849 2.37895 11.2849 3.0711 11.6892 3.41539C11.8622 3.56243 12.4631 3.78137 13.0248 3.90151C14.075 4.12637 15.825 5.13341 16.5186 5.91235C17.2552 6.73917 17.8555 7.8832 18.1339 8.99011C18.4917 10.4126 18.9044 10.8817 19.5432 10.5912C19.9231 10.4185 20 10.2613 20 9.65681C20 7.64023 18.5826 5.17806 16.5396 3.64545C14.9494 2.45247 12.4498 1.6737 11.6892 2.13418ZM1.58142 3.00942C1.01431 3.25652 0.242167 4.16241 0.0608565 4.79342C-0.174542 5.61218 0.295716 8.10537 1.079 10.1924C2.45527 13.8591 4.86892 16.9024 8.1016 19.047C10.5808 20.6917 13.6227 21.8013 16.1134 21.9695C17.1977 22.0426 17.4857 21.9983 17.9889 21.6813C18.9134 21.0987 19.2726 20.0996 19.2773 18.0982C19.2834 15.4481 18.6897 14.524 16.7256 14.1278C16.204 14.0226 15.3842 13.8117 14.9039 13.6595C13.691 13.2745 12.7346 13.4344 11.9999 14.1451C11.5569 14.5734 11.3145 14.6846 11.0236 14.5925C10.5348 14.4375 8.42505 12.4828 7.75479 11.5636L7.24806 10.8686L7.72137 10.3084C8.6759 9.17875 8.75497 8.72132 8.31022 6.89607C7.38175 3.08581 7.24195 2.95294 4.09713 2.89358C2.91115 2.87117 1.77909 2.92335 1.58142 3.00942ZM11.5903 5.74953C11.0658 6.27295 11.6412 7.3275 12.4511 7.3275C13.1009 7.3275 14.0583 8.23789 14.6002 9.3708C14.9016 10.0011 15.2809 10.5675 15.4432 10.6298C15.866 10.7917 16.5862 10.2609 16.584 9.78896C16.5812 9.13697 15.7842 7.64525 15.0552 6.92709C13.8778 5.76728 12.1582 5.1829 11.5903 5.74953Z" fill="black"/>
</svg>
