<svg width="24" height="24" viewBox="0 0 24 24" fill="none" xmlns="http://www.w3.org/2000/svg">
<path fill-rule="evenodd" clip-rule="evenodd" d="M7.95902 2.18354C6.814 2.76488 6.61628 4.24788 7.57187 5.0869C7.7366 5.23153 8.15971 5.43089 8.69055 5.61399C11.8634 6.70858 14.6834 8.90676 16.6734 11.8366C17.2975 12.7555 18.1197 14.4606 18.4958 15.6161C18.7647 16.4425 19.2637 16.9049 20.0204 17.0291C20.4072 17.0926 20.9844 16.9285 21.3469 16.652C21.4922 16.5412 21.7065 16.2554 21.8231 16.0169C22.1042 15.4424 22.0627 15.0593 21.5819 13.7884C20.5776 11.134 19.1102 8.85603 17.1271 6.87292C15.5437 5.28954 14.0516 4.22129 12.0461 3.23513C10.545 2.49704 9.38541 2.05923 8.80164 2.01021C8.44522 1.98027 8.30105 2.0099 7.95902 2.18354ZM6.9824 7.08095L6.71541 7.85345L7.06292 7.94093C7.86082 8.14185 8.69664 8.94578 8.99983 9.80396C9.18363 10.3242 9.16432 11.2282 8.95753 11.7808C8.73589 12.3732 8.08004 13.0865 7.49275 13.3738C6.88256 13.6724 5.90352 13.7232 5.28824 13.4882C5.05425 13.3988 4.85122 13.3374 4.83699 13.3517C4.76553 13.4231 2 21.3289 2 21.4617C2 21.6597 2.33821 22 2.53498 22C2.64655 22 6.08161 20.7922 6.20185 20.7107C6.21248 20.7035 6.10694 20.4893 5.96731 20.2348C5.7266 19.7956 5.71354 19.7297 5.71354 18.951C5.71354 18.211 5.73504 18.0863 5.9315 17.6862C6.22319 17.0923 6.93385 16.4376 7.5284 16.2152C8.08106 16.0084 8.98497 15.9891 9.50526 16.1729C10.5669 16.548 11.4598 17.6798 11.4598 18.6507C11.4598 18.7729 11.4745 18.8728 11.4924 18.8728C11.5187 18.8728 13.6744 18.1369 17.2605 16.9035L17.7061 16.7503L17.5948 16.5021C17.5336 16.3655 17.3551 15.902 17.1981 15.472C15.6924 11.3486 12.8742 8.62125 8.08411 6.65167L7.2493 6.30846L6.9824 7.08095ZM6.19857 9.35442C5.637 10.9622 5.28355 12.0322 5.28355 12.1247C5.28355 12.4267 6.47016 12.5772 6.94878 12.3359C8.28565 11.6616 8.30762 9.85063 6.98709 9.17133C6.51089 8.92639 6.33366 8.96759 6.19857 9.35442ZM11.9078 9.74376C12.5417 10.375 12.6324 10.4991 12.6324 10.7345C12.6324 11.0942 12.443 11.2894 12.0941 11.2894C11.846 11.2894 11.733 11.2082 11.0899 10.5678C10.456 9.93655 10.3652 9.8124 10.3652 9.57708C10.3652 9.21737 10.5547 9.02216 10.9036 9.02216C11.1517 9.02216 11.2647 9.10331 11.9078 9.74376ZM14.0788 12.7155C14.649 13.0157 14.9778 13.5804 14.9778 14.2594C14.9778 15.2648 14.2628 15.9802 13.2579 15.9802C12.2692 15.9802 11.5437 15.2611 11.5397 14.2772C11.5341 12.9398 12.9042 12.0971 14.0788 12.7155ZM13.1015 13.691C12.7065 13.8337 12.5609 14.4132 12.8536 14.6781C13.0549 14.8602 13.5124 14.8449 13.6888 14.6501C14.0572 14.243 13.6074 13.5083 13.1015 13.691ZM10.1441 13.8423C10.3248 14.0059 10.3326 14.4713 10.1577 14.6645C9.99412 14.8452 9.52871 14.853 9.33553 14.6781C9.15478 14.5145 9.14704 14.0491 9.32193 13.8559C9.48548 13.6752 9.95088 13.6674 10.1441 13.8423ZM8.25438 17.2263C7.70454 17.3367 7.23726 17.7007 6.97333 18.2239C6.7083 18.7495 6.87943 19.7769 7.2934 20.1446C7.4435 20.278 7.49901 20.2657 8.86801 19.7936L10.2871 19.3043V18.8899C10.2871 18.389 10.0948 17.9784 9.69664 17.6288C9.27244 17.2564 8.7835 17.1199 8.25438 17.2263Z" fill="black"/>
</svg>
