<svg width="20" height="24" viewBox="0 0 20 24" fill="none" xmlns="http://www.w3.org/2000/svg">
<path fill-rule="evenodd" clip-rule="evenodd" d="M11.4584 2.01931C10.9813 2.04495 10.8112 2.08355 10.5379 2.22818C10.2634 2.37347 0.206761 12.429 0.08312 12.6818C0.0110668 12.8292 0 12.8994 0 13.2089C0 13.5183 0.0111008 13.5887 0.0830518 13.736C0.204991 13.9856 8.02463 21.7953 8.27454 21.9171C8.42205 21.9889 8.49257 22 8.80234 22C9.11207 22 9.18266 21.9889 9.33014 21.9171C9.46621 21.8508 10.5276 20.8092 14.6149 16.7308C19.3517 12.0046 19.737 11.6116 19.8308 11.4117C19.8866 11.293 19.9491 11.094 19.9698 10.9696C19.996 10.8115 20.0045 9.6009 19.9978 6.95143L19.9883 3.15953L19.9099 2.96572C19.7547 2.58207 19.3899 2.24199 18.9582 2.07845L18.7624 2.00427L15.3232 2.00033C13.4317 1.99819 11.6925 2.00672 11.4584 2.01931ZM15.6678 4.23459C14.9403 4.40518 14.3527 5.1504 14.3527 5.90265C14.3527 6.86865 15.1448 7.66781 16.0996 7.66509C16.728 7.66332 17.3733 7.26587 17.6452 6.71307C17.7843 6.43015 17.8241 6.25239 17.8252 5.90925C17.8275 5.14121 17.3224 4.47499 16.5684 4.2516C16.3666 4.19178 15.8889 4.18276 15.6678 4.23459ZM16.3598 5.10054C16.7421 5.21392 17.0124 5.63552 16.9577 6.03287C16.9247 6.27263 16.7546 6.53619 16.5524 6.66073C16.4164 6.74456 16.3404 6.76585 16.1421 6.77584C15.8462 6.79077 15.6456 6.71069 15.4571 6.50228C15.2905 6.31813 15.2381 6.17853 15.2381 5.91915C15.2381 5.62365 15.3625 5.38002 15.5923 5.22548C15.865 5.04208 16.0572 5.01079 16.3598 5.10054ZM10.4861 8.86863C10.1122 8.98963 9.89771 9.12237 9.6001 9.41701C9.38986 9.62514 9.29377 9.75274 9.19148 9.95965C9.06164 10.2222 9.05783 10.2402 9.06069 10.5718C9.06287 10.8267 9.08204 10.9662 9.13625 11.1217C9.22686 11.3818 9.40733 11.7679 9.56431 12.0376L9.68424 12.2436L8.73526 13.1909L7.78631 14.1382L7.68003 13.9711C7.51672 13.7144 7.4573 13.4793 7.4573 13.0899C7.4573 12.6894 7.50875 12.5261 7.72923 12.227L7.87624 12.0275L7.57362 11.7267C7.38879 11.543 7.25946 11.4387 7.24134 11.4587C7.22503 11.4767 7.14995 11.5765 7.07446 11.6804C6.42502 12.5741 6.42496 13.5576 7.07425 14.5136L7.20971 14.713L6.93341 14.9904C6.78144 15.143 6.65709 15.2834 6.65709 15.3024C6.65709 15.3457 6.97142 15.6575 7.01507 15.6575C7.03278 15.6575 7.17154 15.534 7.32341 15.3831L7.5996 15.1087L7.90586 15.3154C8.33944 15.608 8.68663 15.7303 9.14326 15.7512C9.76491 15.7797 10.1903 15.6179 10.6592 15.1745C11.0934 14.7641 11.2546 14.3987 11.2535 13.8279C11.2527 13.3709 11.1112 12.9553 10.7477 12.342L10.6069 12.1044L11.4665 11.2453C11.9393 10.7728 12.3443 10.3862 12.3665 10.3862C12.3887 10.3862 12.4501 10.4742 12.503 10.5818C12.59 10.7588 12.5991 10.8113 12.5991 11.1366C12.5991 11.4798 12.5937 11.5067 12.4781 11.7392L12.3572 11.9825L12.658 12.2811C12.9938 12.6147 12.9564 12.6153 13.1332 12.2737C13.3332 11.8872 13.4057 11.6242 13.4242 11.2185C13.4343 10.9969 13.4253 10.7665 13.4022 10.6552C13.358 10.4424 13.197 10.083 13.0733 9.92091C13.0279 9.86136 12.9907 9.79205 12.9907 9.76689C12.9907 9.74172 13.0902 9.62256 13.212 9.50207L13.4333 9.28302L13.2557 9.10346C13.158 9.0047 13.0618 8.9239 13.0419 8.9239C13.0219 8.9239 12.9146 9.01572 12.8034 9.12794C12.6922 9.24017 12.5893 9.33199 12.5747 9.33199C12.5601 9.33199 12.4753 9.28023 12.3863 9.21694C12.1666 9.06078 11.9295 8.94566 11.6506 8.85976C11.3199 8.75794 10.8163 8.76178 10.4861 8.86863ZM11.5946 9.70156C11.6976 9.74118 11.8278 9.8111 11.884 9.85698L11.9862 9.94036L11.1692 10.7584C10.7199 11.2084 10.3398 11.5765 10.3246 11.5765C10.2825 11.5765 10.1055 11.1769 10.0465 10.9487C9.98056 10.6935 9.9809 10.6132 10.0489 10.3843C10.1212 10.1415 10.4737 9.78389 10.7475 9.67571C10.9762 9.58539 11.3198 9.59586 11.5946 9.70156ZM10.1081 12.9964C10.4541 13.688 10.423 14.1377 10 14.5602C9.75568 14.8041 9.44479 14.9514 9.16924 14.9535C9.05146 14.9544 8.87521 14.9284 8.77649 14.8954C8.60559 14.8384 8.2681 14.6336 8.21576 14.5552C8.19251 14.5204 9.91051 12.7668 9.96792 12.7668C9.98188 12.7668 10.045 12.8701 10.1081 12.9964Z" fill="black"/>
</svg>
