<svg width="24" height="24" viewBox="0 0 24 24" fill="none" xmlns="http://www.w3.org/2000/svg">
<g clip-path="url(#clip0_741_2697)">
<path fill-rule="evenodd" clip-rule="evenodd" d="M8.37927 0.0667632C5.56904 0.50343 3.04918 2.1135 1.5805 4.4109C-0.427541 7.55198 -0.527788 11.3707 1.31199 14.6387C1.89585 15.6757 3.59144 17.4324 4.55264 17.9961C5.57384 18.5949 6.86087 19.1025 7.87013 19.3046C9.00907 19.5328 11.1091 19.4738 12.2263 19.1822C13.0753 18.9606 14.5236 18.3008 15.237 17.8104L15.7388 17.4655L15.7946 18.0469C15.8278 18.3928 15.9485 18.7637 16.0926 18.9627C16.5614 19.6097 20.872 23.8003 21.1943 23.9222C21.7382 24.128 22.0617 23.9637 23.0082 23.0007C23.9501 22.0424 24.125 21.6946 23.9277 21.1727C23.8089 20.8589 19.6064 16.542 18.9726 16.0828C18.7735 15.9386 18.4026 15.818 18.0567 15.7848L17.4753 15.729L17.8201 15.2272C18.3112 14.5127 18.8671 13.2845 19.163 12.2605C19.5307 10.9889 19.5321 8.43111 19.166 7.16538C18.1712 3.72524 15.4656 1.09598 12.0842 0.282866C10.9931 0.0204873 9.30903 -0.0777515 8.37927 0.0667632ZM11.3418 3.92161C12.4139 4.23985 13.2508 4.73963 14.0104 5.51506C14.8745 6.3972 15.2767 7.10517 15.574 8.26742C16.1076 10.3536 15.5927 12.2545 14.0518 13.888C10.8402 17.2925 5.10572 15.8071 3.9224 11.264C3.67831 10.327 3.70117 8.83522 3.97302 7.95497C4.5464 6.09858 6.27946 4.43098 8.17756 3.90923C8.94719 3.69759 10.6093 3.70416 11.3418 3.92161Z" fill="black"/>
</g>
<defs>
<clipPath id="clip0_741_2697">
<rect width="24" height="24" fill="white"/>
</clipPath>
</defs>
</svg>
