<?xml version="1.0" standalone="no"?>
<!DOCTYPE svg PUBLIC "-//W3C//DTD SVG 20010904//EN"
 "http://www.w3.org/TR/2001/REC-SVG-20010904/DTD/svg10.dtd">
<svg version="1.0" xmlns="http://www.w3.org/2000/svg"
 width="512.000000pt" height="512.000000pt" viewBox="0 0 512.000000 512.000000"
 preserveAspectRatio="xMidYMid meet">
<metadata>
Created by potrace 1.14, written by Peter Selinger 2001-2017
</metadata>
<g transform="translate(0.000000,512.000000) scale(0.100000,-0.100000)"
fill="#000000" stroke="none">
<path d="M4807 5049 c-267 -76 -580 -333 -1008 -829 -226 -262 -536 -679 -780
-1047 -48 -73 -90 -129 -94 -124 -3 5 -7 31 -10 58 -3 26 -8 68 -11 93 -6 50
-6 311 1 405 7 115 27 292 41 365 2 14 7 41 10 60 6 41 21 134 28 170 2 14 13
66 25 115 11 50 22 104 25 120 7 35 35 145 69 268 27 97 29 91 -48 129 -59 30
-90 38 -163 43 -123 10 -259 -53 -402 -184 -78 -72 -205 -155 -345 -226 -152
-77 -176 -87 -490 -205 -143 -54 -277 -105 -297 -114 -21 -9 -40 -16 -43 -16
-15 1 -244 -122 -330 -179 -334 -218 -558 -613 -549 -971 3 -112 17 -181 55
-259 87 -176 256 -241 475 -181 64 17 204 77 204 86 0 3 -22 26 -48 52 -105
104 -154 239 -153 422 0 188 67 390 182 545 53 72 186 199 222 211 9 3 17 9
17 14 0 5 9 12 20 15 11 3 26 12 33 18 28 26 213 119 397 200 30 13 108 47
172 76 64 29 120 52 124 51 4 -1 10 2 13 7 7 9 51 35 51 29 0 -2 -16 -39 -36
-82 -20 -44 -63 -142 -96 -219 -33 -77 -68 -158 -78 -180 -10 -22 -78 -179
-150 -350 -73 -170 -139 -326 -147 -345 -9 -19 -21 -48 -28 -65 -82 -194 -183
-433 -205 -485 -15 -36 -80 -191 -145 -345 -64 -154 -123 -293 -130 -310 -7
-16 -40 -95 -73 -175 -177 -429 -355 -694 -574 -856 -134 -98 -261 -113 -338
-39 l-28 27 -29 -32 c-45 -49 -101 -156 -119 -223 -14 -56 -20 -169 -11 -207
15 -61 23 -82 50 -133 98 -187 340 -247 567 -141 187 88 388 310 600 664 65
107 274 513 302 585 9 22 27 65 41 95 62 137 101 233 201 490 58 151 111 283
116 292 6 10 10 22 10 27 0 17 336 862 549 1380 95 232 145 333 102 208 -11
-31 -18 -57 -16 -57 3 0 0 -12 -6 -26 -5 -15 -12 -43 -15 -63 -3 -20 -8 -44
-10 -54 -3 -10 -7 -32 -10 -50 -2 -18 -6 -43 -9 -57 -3 -14 -8 -45 -11 -70 -3
-25 -8 -54 -10 -65 -17 -88 -25 -492 -11 -590 26 -188 98 -287 220 -302 75
-10 208 38 334 119 55 35 68 51 106 122 25 44 69 122 99 171 30 50 61 101 69
114 35 59 294 447 355 532 97 136 349 473 366 490 8 8 31 36 51 62 20 27 37
46 37 43 0 -3 -29 -63 -64 -133 -232 -465 -477 -1094 -631 -1618 -15 -49 -39
-130 -55 -180 -44 -141 -81 -287 -96 -380 -1 -11 -5 -31 -8 -45 -3 -14 -9 -52
-12 -85 -3 -33 -8 -71 -10 -85 -6 -36 -5 -258 1 -305 25 -189 91 -312 199
-367 57 -29 151 -45 239 -41 78 4 269 47 339 76 l37 16 -31 33 c-26 28 -92
132 -93 148 -1 3 -6 15 -13 28 -7 12 -10 22 -6 22 3 0 2 6 -3 12 -11 14 -42
160 -49 231 -5 48 -5 280 0 347 5 62 17 162 21 180 2 8 7 35 10 60 25 181 123
590 170 713 8 20 13 37 10 37 -3 0 1 14 10 30 9 17 13 30 11 30 -19 0 265 743
340 892 13 27 25 51 26 55 5 27 139 302 235 483 127 239 274 469 387 604 36
43 66 80 66 81 0 2 -25 15 -56 30 -73 36 -163 41 -257 14z"/>
</g>
</svg>
